<svg width="20" height="25" viewBox="0 0 20 25" fill="none" xmlns="http://www.w3.org/2000/svg">
<g clip-path="url(#clip0_47_532)">
<path d="M18.5716 2.2998H1.42423C0.638515 2.2998 0.00012207 2.97949 0.00012207 3.81387V21.7857C0.00012207 22.6201 0.638515 23.2998 1.42423 23.2998H18.5716C19.3573 23.2998 20.0001 22.6201 20.0001 21.7857V3.81387C20.0001 2.97949 19.3573 2.2998 18.5716 2.2998ZM6.04476 20.2998H3.08048V10.2779H6.04923V20.2998H6.04476ZM4.56262 8.90918C3.61173 8.90918 2.84387 8.09824 2.84387 7.10449C2.84387 6.11074 3.61173 5.2998 4.56262 5.2998C5.50905 5.2998 6.28137 6.11074 6.28137 7.10449C6.28137 8.10293 5.51351 8.90918 4.56262 8.90918ZM17.1564 20.2998H14.1921V15.4248C14.1921 14.2623 14.1698 12.767 12.6519 12.767C11.1073 12.767 10.8707 14.0326 10.8707 15.3404V20.2998H7.90637V10.2779H10.7501V11.6467H10.7903C11.1876 10.8592 12.1564 10.0295 13.5983 10.0295C16.5983 10.0295 17.1564 12.1061 17.1564 14.8061V20.2998Z" fill="#1074AF"/>
</g>
<defs>
<clipPath id="clip0_47_532">
<rect width="20" height="24" fill="white" transform="translate(0.00012207 0.799805)"/>
</clipPath>
</defs>
</svg>
